<svg xmlns="http://www.w3.org/2000/svg" width="35" height="24.628" viewBox="0 0 35 24.628">
  <g id="Grupo_540" data-name="Grupo 540" transform="translate(15554.13 -933.77)">
    <path id="Trazado_1931" data-name="Trazado 1931" d="M419.854,269.04H394.87v5.25h35v-5.25Z" transform="translate(-15949 678.887)" fill="#fff"/>
    <path id="Trazado_1932" data-name="Trazado 1932" d="M422.164,277.22H394.87v2.917a2.794,2.794,0,0,0,2.788,2.782h29.423a2.794,2.794,0,0,0,2.788-2.782V277.22Z" transform="translate(-15949 675.479)" fill="#59616a"/>
    <path id="Trazado_1933" data-name="Trazado 1933" d="M427.082,244.77H397.658a2.794,2.794,0,0,0-2.788,2.783v12.1h35v-12.1A2.794,2.794,0,0,0,427.082,244.77Z" transform="translate(-15949 689)" fill="#59616a"/>
    <rect id="Rect치ngulo_221" data-name="Rect치ngulo 221" width="2.357" height="2.217" transform="translate(-15541.717 940.134)" fill="#b5b9bd"/>
    <path id="Trazado_1934" data-name="Trazado 1934" d="M401.57,262.327v-.537h2.888v1.75H402.8A1.237,1.237,0,0,1,401.57,262.327Z" transform="translate(-15951.792 681.908)" fill="#b5b9bd"/>
    <path id="Trazado_1935" data-name="Trazado 1935" d="M414.22,258.58h-5.39v-8.75h2.917v6.3a.671.671,0,0,0,.671.677h3.033v.537A1.242,1.242,0,0,1,414.22,258.58Z" transform="translate(-15954.816 686.892)" fill="#b5b9bd"/>
    <path id="Trazado_1936" data-name="Trazado 1936" d="M418.523,251.9H416.19V249.83h1.12a1.237,1.237,0,0,1,1.237,1.225Z" transform="translate(-15957.883 686.892)" fill="#b5b9bd"/>
    <rect id="Rect치ngulo_222" data-name="Rect치ngulo 222" width="2.893" height="2.217" transform="translate(-15550.222 940.134)" fill="#b5b9bd"/>
    <path id="Trazado_1937" data-name="Trazado 1937" d="M404.457,251.895H401.57v-.84a1.231,1.231,0,0,1,1.231-1.225h1.657Z" transform="translate(-15951.792 686.892)" fill="#b5b9bd"/>
    <path id="Trazado_1938" data-name="Trazado 1938" d="M426.06,252.762a4.153,4.153,0,0,1,7.292-2.736,4.083,4.083,0,0,0,0,5.478,4.124,4.124,0,0,1-3.121,1.429,4.171,4.171,0,0,1-4.171-4.171Z" transform="translate(-15961.996 687.407)" fill="#f09f3d"/>
    <path id="Trazado_1939" data-name="Trazado 1939" d="M439.61,252.763a4.124,4.124,0,0,0-1.05-2.736,4.171,4.171,0,1,1,0,5.478A4.119,4.119,0,0,0,439.61,252.763Z" transform="translate(-15967.204 687.406)" fill="#39de99"/>
  </g>
</svg>
