<svg xmlns="http://www.w3.org/2000/svg" xmlns:xlink="http://www.w3.org/1999/xlink" width="31.581" height="35" viewBox="0 0 31.581 35">
  <defs>
    <linearGradient id="linear-gradient" x1="-0.151" y1="0.177" x2="1.151" y2="0.823" gradientUnits="objectBoundingBox">
      <stop offset="0.5" stop-color="#fff"/>
      <stop offset="0.52" stop-color="#ebebeb"/>
    </linearGradient>
  </defs>
  <g id="Grupo_542" data-name="Grupo 542" transform="translate(15850.94 -924.87)">
    <path id="Trazado_1959" data-name="Trazado 1959" d="M118.582,235.87H101.56a3.5,3.5,0,0,0-3.5,3.5v28a3.5,3.5,0,0,0,3.5,3.5h17.022a3.5,3.5,0,0,0,3.5-3.5v-28a3.5,3.5,0,0,0-3.5-3.5Z" transform="translate(-15949 689)" fill="#59616a"/>
    <path id="Trazado_1960" data-name="Trazado 1960" d="M115.577,237.5h3.278a.367.367,0,0,1,.367.367.373.373,0,0,1-.368.373h-3.278a.373.373,0,0,1-.367-.373A.367.367,0,0,1,115.577,237.5Z" transform="translate(-15956.146 688.321)" fill="#59616a"/>
    <path id="Trazado_1961" data-name="Trazado 1961" d="M117.517,291.6a1.581,1.581,0,1,1,1.122-.461A1.587,1.587,0,0,1,117.517,291.6Z" transform="translate(-15956.446 667.1)" fill="#59616a"/>
    <path id="Trazado_1962" data-name="Trazado 1962" d="M121.348,266.613a.962.962,0,0,1-.945.9H103.381a.962.962,0,0,1-.951-.951v-24.85a.968.968,0,0,1,.951-.951H120.4a.968.968,0,0,1,.951.951v24.9Z" transform="translate(-15950.821 686.963)" fill="url(#linear-gradient)"/>
    <path id="Trazado_1963" data-name="Trazado 1963" d="M137.472,246.88H124.417A2.228,2.228,0,0,0,122.2,249.1v7.945a2.223,2.223,0,0,0,2.217,2.217h.852v4.462l3.745-4.462h8.464a2.228,2.228,0,0,0,2.223-2.217V249.1A2.234,2.234,0,0,0,137.472,246.88Z" transform="translate(-15959.059 684.412)" fill="#a8b6c0"/>
    <path id="Trazado_1964" data-name="Trazado 1964" d="M139.285,258.06a.817.817,0,0,1-.8.8H125.425a.817.817,0,0,1-.805-.8v-7.945a.817.817,0,0,1,.8-.805h13.061a.817.817,0,0,1,.805.8Z" transform="translate(-15960.066 683.4)" fill="#fff"/>
    <path id="Trazado_1965" data-name="Trazado 1965" d="M141.513,256.191l-.391-.262V255.8l-.356-.233v-.128l-.391-.257v-.128l-.391-.262v-.128l-.385-.262v-.128l-.391-.257v-.128l-.391-.262V253.5l-4.083-2.736-4.083,2.736v.245h.583l-.21.146v.245h0v.519h.408v.332h.07v2.234h-.461v.49h-.4v.583h.391v.391h.4v.385h.391v.379h9.17a.817.817,0,0,0,.8-.805v-2.158l-.28-.187Z" transform="translate(-15962.575 682.796)" fill="#e5e5e5" style="mix-blend-mode: multiply;isolation: isolate"/>
    <path id="Trazado_1966" data-name="Trazado 1966" d="M138.4,257.22h-.461V254.6h.461v-.525h-7.333v.525h.461v2.619h-.461v.49h-.4v.583h8.167v-.583h-.4Zm-5.046,0h-.875V254.6h.875Zm1.814,0h-.869V254.6h.869Zm1.826,0h-.881V254.6h.875Zm-6.329-3.774v.245h8.167v-.245l-4.083-2.736Zm5.5-.583h-2.847v-.087l1.423-.957,1.423.957Z" transform="translate(-15962.584 682.817)" fill="#4f5a69"/>
  </g>
</svg>
