<svg xmlns="http://www.w3.org/2000/svg" xmlns:xlink="http://www.w3.org/1999/xlink" width="33.383" height="33.383" viewBox="0 0 33.383 33.383">
  <defs>
    <filter id="Trazado_279" x="0" y="0" width="33.383" height="33.383" filterUnits="userSpaceOnUse">
      <feOffset dy="3" input="SourceAlpha"/>
      <feGaussianBlur stdDeviation="3" result="blur"/>
      <feFlood flood-opacity="0.122"/>
      <feComposite operator="in" in2="blur"/>
      <feComposite in="SourceGraphic"/>
    </filter>
  </defs>
  <g id="Grupo_429" data-name="Grupo 429" transform="translate(9 6)">
    <g id="Grupo_104" data-name="Grupo 104" transform="translate(0 0)">
      <g transform="matrix(1, 0, 0, 1, -9, -6)" filter="url(#Trazado_279)">
        <path id="Trazado_279-2" data-name="Trazado 279" d="M7.589,0a7.692,7.692,0,1,0,7.794,7.587A7.692,7.692,0,0,0,7.589,0ZM7.566,12.373H7.523a1.119,1.119,0,0,1,.026-2.239h.038a1.119,1.119,0,1,1-.022,2.239Zm2.751-5.46a5.073,5.073,0,0,1-.918.821l-.469.324a1.279,1.279,0,0,0-.471.575,1.191,1.191,0,0,0-.073.481V9.19H6.593l0-.152a1.96,1.96,0,0,1,.3-1.293A7.623,7.623,0,0,1,8.231,6.669a1.408,1.408,0,0,0,.316-.323,1.139,1.139,0,0,0,.272-.664,1.3,1.3,0,0,0-.246-.766,1.024,1.024,0,0,0-.887-.333A.965.965,0,0,0,6.79,5a1.662,1.662,0,0,0-.272.894v.077H4.671l0-.08a2.81,2.81,0,0,1,1.2-2.422,3.162,3.162,0,0,1,1.739-.456,3.749,3.749,0,0,1,2.242.646,2.239,2.239,0,0,1,.908,1.933,2.212,2.212,0,0,1-.446,1.325Zm0,0" transform="translate(9 6)" fill="#474e55"/>
      </g>
    </g>
  </g>
</svg>
