<svg xmlns="http://www.w3.org/2000/svg" width="27.324" height="35" viewBox="0 0 27.324 35">
  <g id="vecteezy_business-invoice-flat-icon-modern-style__Convertido_" data-name="vecteezy_business-invoice-flat-icon-modern-style_ [Convertido]" transform="translate(-20.33 -16.303)">
    <path id="Trazado_2022" data-name="Trazado 2022" d="M558.2,433.857l-7.807-7.778a.916.916,0,0,0-.683-.292H532.144a.964.964,0,0,0-.976.972v33.056a.964.964,0,0,0,.976.972h25.372a.964.964,0,0,0,.976-.972V434.537A.909.909,0,0,0,558.2,433.857Z" transform="translate(-510.839 -409.484)" fill="#eee"/>
    <rect id="Rectángulo_236" data-name="Rectángulo 236" width="19.517" height="11.667" rx="5.833" transform="translate(24.233 29.914)" fill="#59616a"/>
    <path id="Trazado_2023" data-name="Trazado 2023" d="M1039.712,447.65c-.114.011-7.837,0-7.837,0a.965.965,0,0,1-.976-.972V438.9a1.675,1.675,0,0,1,.714.292l7.807,7.778A1,1,0,0,1,1039.712,447.65Z" transform="translate(-992.059 -422.113)" fill="#bdbdbd"/>
    <path id="Trazado_2024" data-name="Trazado 2024" d="M1039.712,434.54c-.114.011-7.837,0-7.837,0a.964.964,0,0,1-.976-.972V425.79a1.675,1.675,0,0,1,.714.292l7.807,7.778a1,1,0,0,1,.293.681Z" transform="translate(-992.059 -409.487)" fill="#dbdbdb"/>
    <rect id="Rectángulo_237" data-name="Rectángulo 237" width="9.758" height="1.944" rx="0.972" transform="translate(24.233 20.192)" fill="#59616a"/>
    <rect id="Rectángulo_238" data-name="Rectángulo 238" width="9.758" height="1.944" rx="0.972" transform="translate(24.233 24.081)" fill="#59616a"/>
    <rect id="Rectángulo_239" data-name="Rectángulo 239" width="7.807" height="1.944" rx="0.972" transform="translate(35.943 45.47)" fill="#59616a"/>
  </g>
</svg>
